# xmcd
#
# Track frame offsets:
#	150
#	18160
#	41630
#	66482
#	89812
#	110357
#	131349
#	150244
#	173910
#	194305
#	216315
#	236904
#	260234
#	280424
#
# Disc length: 3997 seconds
#
# Revision: 1
# Processed by: cddbd v1.5PL3 Copyright (c) Steve Scherf et al.
# Submitted via: CDex 1.50Beta5
#
DISCID=d10f9b0e
DTITLE=hitomi - h
DYEAR=1900
DGENRE=Pop
TTITLE0=CANDY GIRL
TTITLE1=WE ARE LONELY GIRL
TTITLE2=PRETTY EYES
TTITLE3=Sexy
TTITLE4=In the future
TTITLE5=Progress
TTITLE6=by myself
TTITLE7=Let's Play Winter
TTITLE8=GO TO THE TOP
TTITLE9=空
TTITLE10=problem
TTITLE11=BUSY NOW
TTITLE12=Flowers for Life
TTITLE13=Someday
EXTD=1999/02/24 ベスト盤
EXTT0=
EXTT1=
EXTT2=
EXTT3=
EXTT4=
EXTT5=
EXTT6=
EXTT7=
EXTT8=
EXTT9=
EXTT10=
EXTT11=
EXTT12=
EXTT13=
PLAYORDER=
